<svg id="Layer_1" data-name="Layer 1" xmlns="http://www.w3.org/2000/svg" viewBox="0 0 68.19 87.36"><defs><style>.cls-1{fill:#f7941d;}.cls-2{fill:#e07f20;}.cls-3{fill:#6d6e71;}.cls-4{fill:#e6e7e8;}</style></defs><title>logo-home</title><path class="cls-1" d="M35.62,61.88a24.68,24.68,0,0,1,0-49.36V2.72A37.28,37.28,0,0,0,31.84,3c-12.4,1.51-21.47,8.1-26.92,19.29C.41,31.53.31,41,5.07,50.3a77.31,77.31,0,0,0,8.07,12.32C20.36,71.9,28.87,80.13,35.62,90Z" transform="translate(-1.52 -2.66)"/><path class="cls-2" d="M35.62,61.82a24.68,24.68,0,0,0,0-49.36V2.66a34.58,34.58,0,0,1,3.77.25C51.79,4.41,60.86,11,66.31,22.2c4.51,9.27,4.62,18.71-.15,28A77.94,77.94,0,0,1,58.1,62.56C50.87,71.84,42.37,80.07,35.62,90Z" transform="translate(-1.52 -2.66)"/><path class="cls-3" d="M46.29,23.36H26.57a1.22,1.22,0,0,0,0,2.43H46.29a1.22,1.22,0,0,0,0-2.43Z" transform="translate(-1.52 -2.66)"/><path class="cls-4" d="M29.49,25.41l0,9.48s.13,2.54,3.3,2.8a3.65,3.65,0,0,0,3.77-2.58l0-9.72Z" transform="translate(-1.52 -2.66)"/><path class="cls-4" d="M50.92,34l-4.77-8.56-2.45.06v9.43a3.4,3.4,0,0,0,2.76,2.79,3.58,3.58,0,0,0,.68.06,4.32,4.32,0,0,0,1.11-.16A3.42,3.42,0,0,0,50.92,34Z" transform="translate(-1.52 -2.66)"/><path class="cls-1" d="M43.63,25.41l0,9.48s-.14,2.54-3.31,2.8a3.65,3.65,0,0,1-3.77-2.58V25.39Z" transform="translate(-1.52 -2.66)"/><rect class="cls-3" x="36.28" y="37.58" width="5.91" height="6.03" rx="1"/><path class="cls-3" d="M47.14,38.94a3.58,3.58,0,0,1-.68-.06v9.6a.91.91,0,0,1-1,1h-11V41.37a1,1,0,0,0-1.09-1.08H29.3c-.87,0-1.19.32-1.19,1.19v7.63c0,.11,0,.22,0,.35h-.83a.93.93,0,0,1-1-1V38.73H26a4.71,4.71,0,0,1-1.53-.29s0,.07,0,.12c0,3.31,0,6.63,0,9.95a2.79,2.79,0,0,0,.24,1.1,2.73,2.73,0,0,0,2.72,1.65h18a2.76,2.76,0,0,0,2.84-2.84V38.78A4.32,4.32,0,0,1,47.14,38.94Z" transform="translate(-1.52 -2.66)"/><path class="cls-1" d="M29.41,25.45v9.43A3.38,3.38,0,0,1,26,37.73,3.66,3.66,0,0,1,22.19,34L27,25.39Z" transform="translate(-1.52 -2.66)"/></svg>